<svg id="Layer_1" data-name="Layer 1" xmlns="http://www.w3.org/2000/svg" viewBox="0 0 128.25 98.7"><defs><style>.cls-1{fill:#0d0d0c;}</style></defs><path class="cls-1" d="M747.85,351.56H650.74l-1.26-4.4c-3.79-13.5-22.21-15.83-29.22-3.55-2.94,5.14,4.77,9.54,7.71,4.4a7.11,7.11,0,0,1,13,1.58l19,66.56a11.68,11.68,0,1,0,1.65,3.83h44.18a11.52,11.52,0,1,0,13.86-8.57,11.26,11.26,0,0,0-2.46-.3H667.78l-2.51-8.77,78-12.09Zm-12.59,30.92-72.41,11.24-9.53-33.28h84.53Z" transform="translate(-619.61 -335.59)"/></svg>