<svg id="Layer_1" data-name="Layer 1" xmlns="http://www.w3.org/2000/svg" viewBox="0 0 855.89 162.74"><defs><style>.cls-1{fill:#0d0d0c;}</style></defs><path class="cls-1" d="M501.09,350.66l2.27-10.59,29.76,0-2.28,10.58h-9.73l-12.53,59.52-10.3,0,12.53-59.53ZM532,410.14h-9.63L537.13,340h9.63L542,362.35a5.27,5.27,0,0,0,1.33-1.05c.67-.48,1.43-1.05,2.29-1.71,1.62-1.25,3.62-2.4,5.25-2.4a5,5,0,0,1,4.86,3.43,13.55,13.55,0,0,1,.3,6.77l-9,42.74h-9.64l8.74-41.3c.38-2-.67-2.29-1.82-2.29a3.86,3.86,0,0,0-2.57,1.24l-.57.57a4.42,4.42,0,0,0-.57.67Zm50.52-18.74-1.23,6c-1.43,5-3.61,8.59-7.72,11.35a12.56,12.56,0,0,1-7.62,2.11c-6.2,0-8.68-3.42-9.45-6.86a18.34,18.34,0,0,1-.1-6.86l5.6-26.23c1.43-5.06,3.71-8.69,7.81-11.64,1.81-1.44,4.38-2.11,7.53-2.11a10.4,10.4,0,0,1,6.77,2.09,8.36,8.36,0,0,1,2.68,4.67,15.64,15.64,0,0,1,.1,6.68l-3.13,15.16-15.93,0-2.47,11.35a6.76,6.76,0,0,0,.58,4.48,2.36,2.36,0,0,0,1.91.76,3.81,3.81,0,0,0,3.52-2.58,6.52,6.52,0,0,0,.95-2.67l1.24-5.72ZM569.3,378.25h7l1.62-7.35c.37-2,.37-3.43-.39-4.58a2.39,2.39,0,0,0-1.91-.76c-1.81,0-2.86,1.24-3.62,2.68a10.5,10.5,0,0,0-1.05,2.67Z" transform="translate(-255.75 -302.68)"/><path class="cls-1" d="M627.74,358.74a21.57,21.57,0,0,0,.66-6.87c-.29-1.9-1-3.24-2.67-3.23-2.67.09-4.1,2.86-5,7a13.17,13.17,0,0,0,1,7.54c1,2.66,2.29,5.43,3.73,8.38a71.82,71.82,0,0,1,4.39,10.68,21.39,21.39,0,0,1,.68,11c-1,4.67-2.57,9-5.52,12.31s-6.77,5.34-12.49,5.35c-6.58,0-9.82-2.48-11.06-6.29-1.44-3.81-.68-8.77.36-14.11l10.3-1a25.64,25.64,0,0,0-.85,8.11c.29,2.29,1.05,3.82,3.25,3.81,3.05,0,4.76-3.24,5.81-7.73a14.25,14.25,0,0,0-1.06-7.72c-.29-.67-.57-1.43-.86-2.1s-.58-1.43-.86-2.1c-.67-1.43-1.43-3-2.2-4.57s-1.53-3.24-2.29-5.05a32.61,32.61,0,0,1-2.78-10.87,16.16,16.16,0,0,1,.38-5.63,22.85,22.85,0,0,1,5.42-11.07,15.59,15.59,0,0,1,11.44-5.35c6.39-.1,9.35,2.47,10.59,6.19s.77,8.49-.08,12.4ZM642.19,410l-9.63,0,14.81-70.11H657l-4.75,22.32a5.39,5.39,0,0,0,1.34-1.06c.66-.47,1.43-1,2.29-1.71,1.61-1.24,3.62-2.39,5.24-2.39a5,5,0,0,1,4.86,3.43,13.55,13.55,0,0,1,.3,6.77l-9,42.73h-9.63l8.73-41.3c.38-2-.67-2.29-1.81-2.29a3.88,3.88,0,0,0-2.58,1.24l-.57.58a4,4,0,0,0-.57.67Zm49-12.73c-1.43,5.06-3.52,8.59-7.62,11.36a12.66,12.66,0,0,1-7.63,2.1,9.47,9.47,0,0,1-6.68-2.18,8.08,8.08,0,0,1-2.67-4.67,18.4,18.4,0,0,1-.1-6.87l5.6-26.23c1.42-5.06,3.52-8.68,7.62-11.64,1.81-1.43,4.38-2.1,7.53-2.11a10.42,10.42,0,0,1,6.77,2.1,8.36,8.36,0,0,1,2.68,4.66,15.81,15.81,0,0,1,.1,6.68Zm-3.46-26.5c.47-2,.38-3.54-.29-4.58a2.36,2.36,0,0,0-1.91-.76c-1.81,0-2.86,1.24-3.53,2.67a5.89,5.89,0,0,0-.85,2.67L675.55,397a5.85,5.85,0,0,0,.3,4.48,2.34,2.34,0,0,0,1.9.77,3.83,3.83,0,0,0,3.53-2.58,5.94,5.94,0,0,0,.86-2.67Zm18.58-13H716l-.75,3.43a22.83,22.83,0,0,1,5.71-3.53,5.62,5.62,0,0,1,2.77-.67,5.25,5.25,0,0,1,5.05,3.43,13.55,13.55,0,0,1,.3,6.77l-7,33.28a16.91,16.91,0,0,1-3.14,6.68c-1.81,2-3.81,3.54-6.48,3.54a7.87,7.87,0,0,1-4.77-2.09c-.67-.67-1.34-1.34-2-2.1l-4.47,21.37h-9.63Zm1,40.72c-.28,1.52.77,3.15,2.2,3.15a3.73,3.73,0,0,0,3.24-3.16l6.17-29.28c.38-1.81-.48-3.15-1.91-3.15a4,4,0,0,0-3.53,3.16Zm31-40.75h9.63l-.76,3.43a22.88,22.88,0,0,1,5.72-3.53,5.62,5.62,0,0,1,2.77-.67,5.26,5.26,0,0,1,5,3.43,13.52,13.52,0,0,1,.3,6.76l-7,33.3a17.07,17.07,0,0,1-3.14,6.67c-1.81,2-3.81,3.54-6.48,3.54a7.77,7.77,0,0,1-4.77-2.1c-.67-.66-1.34-1.33-2-2.09l-4.46,21.36-9.63,0Zm1,40.72a2.58,2.58,0,0,0,2.2,3.14,3.72,3.72,0,0,0,3.24-3.15l6.17-29.28c.38-1.81-.48-3.15-1.91-3.15a4,4,0,0,0-3.53,3.15ZM774,339.81h9.62l-2.08,9.64h-9.63ZM759.2,409.92l11-52.17h9.63l-11,52.17Zm26.9,0h-9.63l11-52.18h9.63l-1,4.39a5.71,5.71,0,0,0,1.34-1.05c.66-.48,1.43-1.05,2.28-1.72C801.4,358.1,803.4,357,805,357a5,5,0,0,1,4.87,3.43,13.44,13.44,0,0,1,.29,6.77l-9,42.73h-9.62l8.73-41.3c.38-2-.67-2.29-1.82-2.29a3.86,3.86,0,0,0-2.57,1.24l-.57.58a5,5,0,0,0-.58.66Zm51.38-25.23c-2.57,9.44-9.34,12.88-15.16,12.89h-.85a2.31,2.31,0,0,1-1-.1,4.18,4.18,0,0,0-1.81,2.39c-.28,1.15.48,1.81,1.91,2.19a29.73,29.73,0,0,0,4.77,1,16.74,16.74,0,0,1,8.3,2.94c2.2,1.82,3.54,4.58,2.49,9.16a15.6,15.6,0,0,1-7.53,10.5,24.72,24.72,0,0,1-11.82,2.87c-4.57-.09-8.29-.76-10.68-2.28s-3.34-4-2.58-7.82a8.19,8.19,0,0,1,3.33-4.68,25,25,0,0,1,5.82-3.24c-3-.86-5.35-2.86-4.3-7a8.94,8.94,0,0,1,3-4.48,16.91,16.91,0,0,1,4.67-3.35,9.09,9.09,0,0,1-3.25-7.05,20.57,20.57,0,0,1,.09-4.29l3-14.22A19.46,19.46,0,0,1,823.53,359a11.58,11.58,0,0,1,7.34-2.1c4.86,0,7.44,2.18,8.68,4.75a24.35,24.35,0,0,1,3.91-2.86c1.81-1.05,3.43-1.91,4.95-1.91l-1.8,8.58a12.8,12.8,0,0,0-5.81,1.15v1.24a2.22,2.22,0,0,0-.1,1.05v.48a1.09,1.09,0,0,0-.09.48ZM831,370.56a5.56,5.56,0,0,0-.29-4,1.79,1.79,0,0,0-1.62-.76c-1.53,0-2.48,1.24-3.15,2.38a9.17,9.17,0,0,0-.67,2.39l-3,14.3a4.86,4.86,0,0,0,.19,3.91,1.8,1.8,0,0,0,1.63.77c1.62,0,2.47-1.15,3.14-2.3a16.57,16.57,0,0,0,.76-2.38Zm-13.31,41.69c-2.2,1.15-4.1,2.58-4.48,4.58s1,3.63,5.53,3.62a13.12,13.12,0,0,0,5.06-.86c1.52-.67,2.76-1.43,3-2.68a2.35,2.35,0,0,0-1.71-3.05,12.42,12.42,0,0,0-2.68-.66Z" transform="translate(-255.75 -302.68)"/><path class="cls-1" d="M887.73,385.76l-2,9.64a26.33,26.33,0,0,1-3.33,7.63,20.92,20.92,0,0,1-5.24,5.16,14.06,14.06,0,0,1-8.39,2.39c-3.34,0-5.82-.76-7.53-2.38a9,9,0,0,1-2.87-5.15,15.64,15.64,0,0,1-.1-7.62L867,354.12a23.14,23.14,0,0,1,3.24-7.53,20.47,20.47,0,0,1,5.14-5.25,15.45,15.45,0,0,1,8.49-2.4c3.43,0,5.81.95,7.44,2.38a9.5,9.5,0,0,1,3,5.25,16.37,16.37,0,0,1,.2,7.53l-2.09,9.63h-9.64l2.09-9.63a5.12,5.12,0,0,0-.67-4.39A2.76,2.76,0,0,0,882,349c-1.82,0-3,1.34-3.72,2.58a19.36,19.36,0,0,0-1,2.57l-8.74,41.31a5.84,5.84,0,0,0,.68,4.38,2.12,2.12,0,0,0,1.81.76,4.32,4.32,0,0,0,4.1-2.58,12.43,12.43,0,0,0,1-2.57l2-9.63ZM911.85,370a8.67,8.67,0,0,0,.38-3.15,1.83,1.83,0,0,0-2-1.62c-1.62,0-2.48,1.24-3.14,2.77-.29.76-.48,1.62-.76,2.48-.1.48-.19.86-.29,1.24s-.09.86-.19,1.24h-9.63l.38-2.2A19.5,19.5,0,0,1,902.4,361a15.29,15.29,0,0,1,10.1-4.11,9.31,9.31,0,0,1,7.54,3.33,9.51,9.51,0,0,1,1.72,8.48l-6.74,32a43.9,43.9,0,0,0-1.23,9.06h-9.44c-.67-1-.29-3.53,0-4.19h-.67a15.65,15.65,0,0,1-3.34,3.15,10,10,0,0,1-5.43,1.81,4.93,4.93,0,0,1-4.29-2.37c-1.24-1.82-1.92-5.06-.78-10.5a25.19,25.19,0,0,1,6.76-12.88,30.75,30.75,0,0,1,8.77-5.92c2.67-1.24,4.58-2.1,5.24-3.15Zm-3,14.59c-5.24,2-8.1,6.68-9.15,11.65a7,7,0,0,0-.18,2.85c.29,1.15.67,2,1.81,2,2.19,0,4.29-1.33,4.67-3.14Zm40-17.11a7.48,7.48,0,0,0-2.58-.38,8,8,0,0,0-5.24,1.63,7.16,7.16,0,0,0-3.14,4.77l-7.6,36.25h-9.63l11-52.17h9.63l-1.23,5.82a11.47,11.47,0,0,1,3-3.82,12.44,12.44,0,0,1,7.91-2.77Zm20.57-22.81-2.65,12.88h6.58l-1.9,8.68h-6.58l-5.41,25.94a24.44,24.44,0,0,0-.86,5.44c.1,1.81.48,3.14,2,3.14a19.36,19.36,0,0,0,2.48-.19,1.26,1.26,0,0,1,.57-.09,1.15,1.15,0,0,0,.57-.1l-2,9.44c-.29.1-.48.1-.67.19s-.57.1-.85.2a20.65,20.65,0,0,1-3.73.29c-5.72,0-7.63-2.76-8.3-6.48s.28-8,.94-11.07l5.6-26.7h-4.86l1.9-8.68h4.86l2.66-12.88Z" transform="translate(-255.75 -302.68)"/><path class="cls-1" d="M1010.06,358.37a21.51,21.51,0,0,0,.66-6.86c-.28-1.91-1.05-3.25-2.67-3.25-2.67.1-4.1,2.87-4.95,7a13.28,13.28,0,0,0,1,7.53c1.05,2.68,2.29,5.44,3.73,8.4a71.28,71.28,0,0,1,4.39,10.67,21.28,21.28,0,0,1,.68,11c-1,4.67-2.56,9-5.52,12.3s-6.76,5.35-12.48,5.36c-6.59,0-9.83-2.47-11.07-6.28-1.44-3.82-.68-8.78.36-14.12l10.3-1a25.55,25.55,0,0,0-.85,8.1c.29,2.29,1.06,3.81,3.25,3.81,3,0,4.76-3.24,5.81-7.73a14.26,14.26,0,0,0-1.06-7.72c-.28-.67-.57-1.43-.86-2.1s-.57-1.43-.86-2.09c-.67-1.43-1.43-3-2.2-4.58s-1.53-3.24-2.29-5.05a32.79,32.79,0,0,1-2.78-10.87,16.16,16.16,0,0,1,.38-5.63,22.77,22.77,0,0,1,5.42-11.06,15.6,15.6,0,0,1,11.44-5.36c6.39-.1,9.35,2.47,10.6,6.19s.77,8.49-.09,12.4Zm14.45,51.3h-9.63l14.81-70.11h9.63l-4.75,22.32a5.51,5.51,0,0,0,1.34-1.05c.67-.48,1.43-1.05,2.29-1.72,1.62-1.24,3.62-2.39,5.24-2.39a5,5,0,0,1,4.86,3.43,13.44,13.44,0,0,1,.3,6.77l-9,42.73H1030l8.73-41.3c.38-2-.67-2.29-1.81-2.29a3.85,3.85,0,0,0-2.58,1.25l-.57.57a4.31,4.31,0,0,0-.57.66Zm49-12.73c-1.43,5.05-3.52,8.58-7.62,11.35a12.73,12.73,0,0,1-7.63,2.11,9.54,9.54,0,0,1-6.68-2.19,8.11,8.11,0,0,1-2.67-4.67,18.39,18.39,0,0,1-.1-6.87l5.6-26.23c1.42-5.05,3.52-8.68,7.62-11.64,1.81-1.43,4.38-2.1,7.53-2.11a10.46,10.46,0,0,1,6.77,2.09,8.44,8.44,0,0,1,2.68,4.68,15.6,15.6,0,0,1,.1,6.67Zm-3.46-26.51q.72-3-.29-4.58a2.36,2.36,0,0,0-1.91-.76c-1.81,0-2.86,1.24-3.52,2.67a5.82,5.82,0,0,0-.86,2.67l-5.6,26.23a5.84,5.84,0,0,0,.29,4.49,2.39,2.39,0,0,0,1.91.76,3.81,3.81,0,0,0,3.52-2.58,5.89,5.89,0,0,0,.86-2.67Zm18.58-13h9.64l-.76,3.43a22.83,22.83,0,0,1,5.71-3.53,5.64,5.64,0,0,1,2.77-.67,5.27,5.27,0,0,1,5.06,3.43,13.55,13.55,0,0,1,.29,6.77l-7,33.29a17,17,0,0,1-3.14,6.68c-1.8,2-3.81,3.53-6.48,3.53a7.82,7.82,0,0,1-4.77-2.09c-.66-.67-1.33-1.34-2-2.1l-4.46,21.37h-9.63Zm1,40.72a2.56,2.56,0,0,0,2.19,3.14,3.7,3.7,0,0,0,3.24-3.14l6.17-29.29c.38-1.81-.48-3.14-1.91-3.14a4,4,0,0,0-3.52,3.14Z" transform="translate(-255.75 -302.68)"/><path class="cls-1" d="M384,356.52H286.89l-1.26-4.4c-3.79-13.5-22.21-15.83-29.22-3.55-2.94,5.14,4.77,9.54,7.71,4.4a7.11,7.11,0,0,1,13,1.58l19.05,66.56a11.68,11.68,0,1,0,1.65,3.83H342a11.52,11.52,0,1,0,11.4-8.87l-.15,0H303.93l-2.51-8.77,78-12.09Zm-12.59,30.92L299,398.68l-9.53-33.28H374Z" transform="translate(-255.75 -302.68)"/><path class="cls-1" d="M432.89,465.43V302.68h2.36V465.43Z" transform="translate(-255.75 -302.68)"/></svg>